# Blender v2.76 (sub 0) OBJ File: ''
# www.blender.org
v 0.000000 -1.000000 0.000000
v 0.723607 -0.447220 0.525725
v -0.276388 -0.447220 0.850649
v -0.894426 -0.447216 0.000000
v -0.276388 -0.447220 -0.850649
v 0.723607 -0.447220 -0.525725
v 0.276388 0.447220 0.850649
v -0.723607 0.447220 0.525725
v -0.723607 0.447220 -0.525725
v 0.276388 0.447220 -0.850649
v 0.894426 0.447216 0.000000
v 0.000000 1.000000 0.000000
v -0.162456 -0.850654 0.499995
v 0.425323 -0.850654 0.309011
v 0.262869 -0.525738 0.809012
v 0.850648 -0.525736 0.000000
v 0.425323 -0.850654 -0.309011
v -0.525730 -0.850652 0.000000
v -0.688189 -0.525736 0.499997
v -0.162456 -0.850654 -0.499995
v -0.688189 -0.525736 -0.499997
v 0.262869 -0.525738 -0.809012
v 0.951058 0.000000 0.309013
v 0.951058 0.000000 -0.309013
v 0.000000 0.000000 1.000000
v 0.587786 0.000000 0.809017
v -0.951058 0.000000 0.309013
v -0.587786 0.000000 0.809017
v -0.587786 0.000000 -0.809017
v -0.951058 0.000000 -0.309013
v 0.587786 0.000000 -0.809017
v 0.000000 0.000000 -1.000000
v 0.688189 0.525736 0.499997
v -0.262869 0.525738 0.809012
v -0.850648 0.525736 0.000000
v -0.262869 0.525738 -0.809012
v 0.688189 0.525736 -0.499997
v 0.162456 0.850654 0.499995
v 0.525730 0.850652 0.000000
v -0.425323 0.850654 0.309011
v -0.425323 0.850654 -0.309011
v 0.162456 0.850654 -0.499995
vt 0.951202 0.305335
vt 0.951202 0.178877
vt 0.824744 0.305335
vt 0.434508 0.176161
vt 0.434508 0.049703
vt 0.308050 0.176161
vt 0.305335 0.951202
vt 0.178877 0.951202
vt 0.305335 0.824744
vt 0.177971 0.823839
vt 0.177971 0.950297
vt 0.304430 0.823839
vt 0.823839 0.177971
vt 0.950297 0.177971
vt 0.823839 0.304430
vt 0.305335 0.563682
vt 0.178877 0.563682
vt 0.305335 0.437223
vt 0.563682 0.692855
vt 0.437223 0.692855
vt 0.563682 0.566397
vt 0.434508 0.692855
vt 0.308050 0.692855
vt 0.434508 0.566397
vt 0.692855 0.176161
vt 0.566397 0.176161
vt 0.692855 0.049703
vt 0.563682 0.434508
vt 0.437223 0.434508
vt 0.563682 0.308050
vt 0.305335 0.692855
vt 0.178877 0.692855
vt 0.305335 0.566397
vt 0.176161 0.692855
vt 0.049703 0.692855
vt 0.176161 0.566397
vt 0.434508 0.563682
vt 0.434508 0.437223
vt 0.308050 0.563682
vt 0.822029 0.176161
vt 0.822029 0.049703
vt 0.695570 0.176161
vt 0.692855 0.563682
vt 0.692855 0.437223
vt 0.566397 0.563682
vt 0.176161 0.951202
vt 0.176161 0.824744
vt 0.049703 0.951202
vt 0.176161 0.176161
vt 0.049703 0.176161
vt 0.176161 0.049703
vt 0.951202 0.176161
vt 0.824744 0.176161
vt 0.951202 0.049703
vt 0.692855 0.822029
vt 0.566397 0.822029
vt 0.692855 0.695570
vt 0.434508 0.434508
vt 0.308050 0.434508
vt 0.434508 0.308050
vt 0.822029 0.437223
vt 0.695570 0.563682
vt 0.822029 0.563682
vt 0.563682 0.822029
vt 0.437223 0.822029
vt 0.563682 0.695570
vt 0.048798 0.950297
vt 0.048798 0.823839
vt 0.175256 0.823839
vt 0.695570 0.822029
vt 0.822029 0.695570
vt 0.822029 0.822029
vt 0.695570 0.692855
vt 0.822029 0.566397
vt 0.822029 0.692855
vt 0.437223 0.176161
vt 0.563682 0.176161
vt 0.563682 0.049703
vt 0.305335 0.178877
vt 0.178877 0.305335
vt 0.305335 0.305335
vt 0.049703 0.434508
vt 0.176161 0.308050
vt 0.176161 0.434508
vt 0.950297 0.048798
vt 0.823839 0.048798
vt 0.823839 0.175256
vt 0.694665 0.821123
vt 0.821123 0.694665
vt 0.694665 0.694665
vt 0.694665 0.565492
vt 0.694665 0.691950
vt 0.821123 0.565492
vt 0.691950 0.694665
vt 0.565492 0.694665
vt 0.565492 0.821123
vt 0.821123 0.436318
vt 0.694665 0.562777
vt 0.694665 0.436318
vt 0.436318 0.821123
vt 0.562777 0.694665
vt 0.436318 0.694665
vt 0.049703 0.563682
vt 0.176161 0.563682
vt 0.176161 0.437223
vt 0.176161 0.695570
vt 0.049703 0.822029
vt 0.176161 0.822029
vt 0.566397 0.305335
vt 0.692855 0.305335
vt 0.692855 0.178877
vt 0.822029 0.178877
vt 0.822029 0.305335
vt 0.695570 0.305335
vt 0.305335 0.695570
vt 0.178877 0.822029
vt 0.305335 0.822029
vt 0.437223 0.563682
vt 0.563682 0.563682
vt 0.563682 0.437223
vt 0.434508 0.695570
vt 0.434508 0.822029
vt 0.308050 0.822029
vt 0.822029 0.308050
vt 0.695570 0.434508
vt 0.822029 0.434508
vt 0.437223 0.305335
vt 0.563682 0.305335
vt 0.563682 0.178877
vt 0.694665 0.433603
vt 0.694665 0.307145
vt 0.821123 0.307145
vt 0.307145 0.821123
vt 0.433603 0.694665
vt 0.307145 0.694665
vt 0.692855 0.692855
vt 0.566397 0.692855
vt 0.692855 0.566397
vt 0.177971 0.821123
vt 0.177971 0.694665
vt 0.304430 0.694665
vt 0.694665 0.304430
vt 0.821123 0.177971
vt 0.694665 0.177971
vt 0.692855 0.434508
vt 0.566397 0.434508
vt 0.692855 0.308050
vt 0.048798 0.821123
vt 0.048798 0.694665
vt 0.175256 0.694665
vt 0.694665 0.175256
vt 0.821123 0.048798
vt 0.694665 0.048798
vt 0.565492 0.565492
vt 0.565492 0.691950
vt 0.691950 0.565492
vt 0.562777 0.565492
vt 0.436318 0.565492
vt 0.436318 0.691950
vt 0.565492 0.562777
vt 0.691950 0.436318
vt 0.565492 0.436318
vt 0.565492 0.307145
vt 0.565492 0.433603
vt 0.691950 0.307145
vt 0.433603 0.565492
vt 0.307145 0.565492
vt 0.307145 0.691950
vt 0.304430 0.565492
vt 0.177971 0.691950
vt 0.177971 0.565492
vt 0.691950 0.177971
vt 0.565492 0.304430
vt 0.565492 0.177971
vt 0.691950 0.048798
vt 0.565492 0.048798
vt 0.565492 0.175256
vt 0.175256 0.565492
vt 0.048798 0.691950
vt 0.048798 0.565492
vt 0.562777 0.436318
vt 0.436318 0.562777
vt 0.436318 0.436318
vt 0.562777 0.307145
vt 0.436318 0.307145
vt 0.436318 0.433603
vt 0.307145 0.562777
vt 0.433603 0.436318
vt 0.307145 0.436318
vt 0.436318 0.177971
vt 0.436318 0.304430
vt 0.562777 0.177971
vt 0.304430 0.436318
vt 0.177971 0.436318
vt 0.177971 0.562777
vt 0.436318 0.175256
vt 0.562777 0.048798
vt 0.436318 0.048798
vt 0.176161 0.305335
vt 0.049703 0.305335
vt 0.176161 0.178877
vt 0.305335 0.049703
vt 0.305335 0.176161
vt 0.178877 0.176161
vt 0.308050 0.305335
vt 0.434508 0.178877
vt 0.434508 0.305335
vt 0.305335 0.308050
vt 0.305335 0.434508
vt 0.178877 0.434508
vt 0.048798 0.562777
vt 0.048798 0.436318
vt 0.175256 0.436318
vt 0.307145 0.433603
vt 0.433603 0.307145
vt 0.307145 0.307145
vt 0.177971 0.307145
vt 0.177971 0.433603
vt 0.304430 0.307145
vt 0.433603 0.177971
vt 0.307145 0.177971
vt 0.307145 0.304430
vt 0.433603 0.048798
vt 0.307145 0.175256
vt 0.307145 0.048798
vt 0.048798 0.433603
vt 0.175256 0.307145
vt 0.048798 0.307145
vt 0.304430 0.177971
vt 0.177971 0.177971
vt 0.177971 0.304430
vt 0.177971 0.175256
vt 0.304430 0.048798
vt 0.177971 0.048798
vt 0.175256 0.177971
vt 0.048798 0.177971
vt 0.048798 0.304430
vt 0.048798 0.175256
vt 0.048798 0.048798
vt 0.175256 0.048798
vn 0.102400 -0.943500 0.315100
vn 0.700200 -0.661700 0.268000
vn -0.268000 -0.943500 0.194700
vn -0.268000 -0.943500 -0.194700
vn 0.102400 -0.943500 -0.315100
vn 0.905000 -0.330400 0.268000
vn 0.024700 -0.330400 0.943500
vn -0.889700 -0.330400 0.315100
vn -0.574600 -0.330400 -0.748800
vn 0.534600 -0.330400 -0.777900
vn 0.802600 -0.125600 0.583100
vn -0.306600 -0.125600 0.943500
vn -0.992100 -0.125600 0.000000
vn -0.306600 -0.125600 -0.943500
vn 0.802600 -0.125600 -0.583100
vn 0.408900 0.661700 0.628400
vn -0.471300 0.661700 0.583100
vn -0.700200 0.661700 -0.268000
vn 0.038500 0.661700 -0.748800
vn 0.724000 0.661700 -0.194700
vn 0.268000 0.943500 -0.194700
vn 0.491100 0.794700 -0.356800
vn 0.408900 0.661700 -0.628400
vn -0.102400 0.943500 -0.315100
vn -0.187600 0.794700 -0.577300
vn -0.471300 0.661700 -0.583100
vn -0.331300 0.943500 0.000000
vn -0.607100 0.794700 0.000000
vn -0.700200 0.661700 0.268000
vn -0.102400 0.943500 0.315100
vn -0.187600 0.794700 0.577300
vn 0.038500 0.661700 0.748800
vn 0.268000 0.943500 0.194700
vn 0.491100 0.794700 0.356800
vn 0.724000 0.661700 0.194700
vn 0.889700 0.330400 -0.315100
vn 0.794700 0.187600 -0.577300
vn 0.574600 0.330400 -0.748800
vn -0.024700 0.330400 -0.943500
vn -0.303500 0.187600 -0.934200
vn -0.534600 0.330400 -0.777900
vn -0.905000 0.330400 -0.268000
vn -0.982200 0.187600 0.000000
vn -0.905000 0.330400 0.268000
vn -0.534600 0.330400 0.777900
vn -0.303500 0.187600 0.934200
vn -0.024700 0.330400 0.943500
vn 0.574600 0.330400 0.748800
vn 0.794700 0.187600 0.577300
vn 0.889700 0.330400 0.315100
vn 0.306600 0.125600 -0.943500
vn 0.303500 -0.187600 -0.934200
vn 0.024700 -0.330400 -0.943500
vn -0.802600 0.125600 -0.583100
vn -0.794700 -0.187600 -0.577300
vn -0.889700 -0.330400 -0.315100
vn -0.802600 0.125600 0.583100
vn -0.794700 -0.187600 0.577300
vn -0.574600 -0.330400 0.748800
vn 0.306600 0.125600 0.943500
vn 0.303500 -0.187600 0.934200
vn 0.534600 -0.330400 0.777900
vn 0.992100 0.125600 0.000000
vn 0.982200 -0.187600 0.000000
vn 0.905000 -0.330400 -0.268000
vn 0.471300 -0.661700 -0.583100
vn 0.187600 -0.794700 -0.577300
vn -0.038500 -0.661700 -0.748800
vn -0.408900 -0.661700 -0.628400
vn -0.491100 -0.794700 -0.356800
vn -0.724000 -0.661700 -0.194700
vn -0.724000 -0.661700 0.194700
vn -0.491100 -0.794700 0.356800
vn -0.408900 -0.661700 0.628400
vn 0.700200 -0.661700 -0.268000
vn 0.607100 -0.794700 0.000000
vn 0.331300 -0.943500 0.000000
vn -0.038500 -0.661700 0.748800
vn 0.187600 -0.794700 0.577300
vn 0.471300 -0.661700 0.583100
s off
f 1/1/1 14/2/1 13/3/1
f 2/4/2 14/5/2 16/6/2
f 1/7/3 13/8/3 18/9/3
f 1/10/4 18/11/4 20/12/4
f 1/13/5 20/14/5 17/15/5
f 2/16/6 16/17/6 23/18/6
f 3/19/7 15/20/7 25/21/7
f 4/22/8 19/23/8 27/24/8
f 5/25/9 21/26/9 29/27/9
f 6/28/10 22/29/10 31/30/10
f 2/31/11 23/32/11 26/33/11
f 3/34/12 25/35/12 28/36/12
f 4/37/13 27/38/13 30/39/13
f 5/40/14 29/41/14 32/42/14
f 6/43/15 31/44/15 24/45/15
f 7/46/16 33/47/16 38/48/16
f 8/49/17 34/50/17 40/51/17
f 9/52/18 35/53/18 41/54/18
f 10/55/19 36/56/19 42/57/19
f 11/58/20 37/59/20 39/60/20
f 39/61/21 42/62/21 12/63/21
f 39/64/22 37/65/22 42/66/22
f 37/67/23 10/68/23 42/69/23
f 42/70/24 41/71/24 12/72/24
f 42/73/25 36/74/25 41/75/25
f 36/76/26 9/77/26 41/78/26
f 41/79/27 40/80/27 12/81/27
f 41/82/28 35/83/28 40/84/28
f 35/85/29 8/86/29 40/87/29
f 40/88/30 38/89/30 12/90/30
f 40/91/31 34/92/31 38/93/31
f 34/94/32 7/95/32 38/96/32
f 38/97/33 39/98/33 12/99/33
f 38/100/34 33/101/34 39/102/34
f 33/103/35 11/104/35 39/105/35
f 24/106/36 37/107/36 11/108/36
f 24/109/37 31/110/37 37/111/37
f 31/112/38 10/113/38 37/114/38
f 32/115/39 36/116/39 10/117/39
f 32/118/40 29/119/40 36/120/40
f 29/121/41 9/122/41 36/123/41
f 30/124/42 35/125/42 9/126/42
f 30/127/43 27/128/43 35/129/43
f 27/130/44 8/131/44 35/132/44
f 28/133/45 34/134/45 8/135/45
f 28/136/46 25/137/46 34/138/46
f 25/139/47 7/140/47 34/141/47
f 26/142/48 33/143/48 7/144/48
f 26/145/49 23/146/49 33/147/49
f 23/148/50 11/149/50 33/150/50
f 31/151/51 32/152/51 10/153/51
f 31/154/52 22/155/52 32/156/52
f 22/157/53 5/158/53 32/159/53
f 29/160/54 30/161/54 9/162/54
f 29/163/55 21/164/55 30/165/55
f 21/166/56 4/167/56 30/168/56
f 27/169/57 28/170/57 8/171/57
f 27/172/58 19/173/58 28/174/58
f 19/175/59 3/176/59 28/177/59
f 25/178/60 26/179/60 7/180/60
f 25/181/61 15/182/61 26/183/61
f 15/184/62 2/185/62 26/186/62
f 23/187/63 24/188/63 11/189/63
f 23/190/64 16/191/64 24/192/64
f 16/193/65 6/194/65 24/195/65
f 17/196/66 22/197/66 6/198/66
f 17/199/67 20/200/67 22/201/67
f 20/202/68 5/203/68 22/204/68
f 20/205/69 21/206/69 5/207/69
f 20/208/70 18/209/70 21/210/70
f 18/211/71 4/212/71 21/213/71
f 18/214/72 19/215/72 4/216/72
f 18/217/73 13/218/73 19/219/73
f 13/220/74 3/221/74 19/222/74
f 16/223/75 17/224/75 6/225/75
f 16/226/76 14/227/76 17/228/76
f 14/229/77 1/230/77 17/231/77
f 13/232/78 15/233/78 3/234/78
f 13/235/79 14/236/79 15/237/79
f 14/238/80 2/239/80 15/240/80