# Blender v2.78 (sub 0) OBJ File: ''
# www.blender.org
mtllib sphere.mtl
o Icosphere
v 0.012165 -0.991462 -0.008422
v 0.742789 -0.433762 0.609559
v -0.229485 -0.465388 0.898203
v -0.939358 -0.455256 -0.058891
v -0.327003 -0.482348 -0.890272
v 0.673642 -0.393616 -0.499954
v 0.238417 0.387545 0.839831
v -0.732074 0.448214 0.518782
v -0.708420 0.499423 -0.509081
v 0.275439 0.439893 -0.865200
v 0.916917 0.435373 0.088845
v 0.006529 0.989336 0.002554
v -0.234185 -0.659288 0.715317
v -0.151407 -0.849747 0.510790
v -0.092373 -0.988283 0.203885
v 0.209467 -1.028419 0.194887
v 0.429639 -0.890337 0.367146
v 0.645106 -0.645264 0.459601
v 0.489068 -0.483467 0.663508
v 0.222446 -0.516424 0.853504
v -0.000784 -0.490045 0.830055
v 0.748948 -0.570635 -0.317441
v 0.841975 -0.496356 -0.010730
v 0.835807 -0.534055 0.301929
v 0.267957 -0.952989 -0.074989
v 0.420314 -0.838390 -0.302002
v 0.612135 -0.651708 -0.442299
v -0.809536 -0.609571 0.026937
v -0.535150 -0.824510 0.005138
v -0.213644 -0.978832 0.019584
v -0.484378 -0.500758 0.718950
v -0.724833 -0.534496 0.545526
v -0.795295 -0.566667 0.226412
v -0.181650 -0.626004 -0.765388
v -0.168521 -0.876476 -0.485258
v -0.066543 -0.951202 -0.269333
v -0.825426 -0.512756 -0.228954
v -0.738690 -0.545885 -0.491106
v -0.488510 -0.527110 -0.681340
v -0.029773 -0.502278 -0.864203
v 0.318479 -0.476459 -0.866566
v 0.532770 -0.502302 -0.680489
v 0.987335 0.181445 0.185826
v 1.014240 0.012382 0.263418
v 0.921081 -0.210207 0.482050
v 0.892497 -0.211760 -0.435106
v 0.901906 -0.002958 -0.337025
v 0.920398 0.300602 -0.125905
v 0.155829 0.273374 0.954465
v 0.063420 0.028037 1.005511
v -0.120807 -0.231060 1.006600
v 0.675768 -0.187045 0.661499
v 0.626040 -0.054507 0.853366
v 0.495097 0.241503 0.871141
v -0.858979 0.244901 0.356210
v -0.956259 0.057983 0.370209
v -0.953799 -0.251763 0.160517
v -0.482279 -0.244303 0.847220
v -0.590757 -0.001185 0.807541
v -0.702169 0.203155 0.711124
v -0.688836 0.220101 -0.631877
v -0.529184 0.069817 -0.838612
v -0.383533 -0.263804 -0.864797
v -0.924611 -0.315120 -0.151876
v -0.884546 0.019565 -0.278231
v -0.902921 0.241730 -0.476485
v 0.440627 0.243568 -0.881838
v 0.619233 -0.015651 -0.859021
v 0.702030 -0.223264 -0.715169
v -0.110114 -0.254499 -1.011180
v 0.038616 -0.032625 -1.038205
v 0.156684 0.182028 -0.902370
v 0.864385 0.506617 0.221005
v 0.697191 0.535185 0.535406
v 0.453588 0.529626 0.726843
v 0.024071 0.500673 0.791596
v -0.312578 0.524699 0.806355
v -0.561946 0.573479 0.646339
v -0.853927 0.513711 0.329171
v -0.842176 0.543961 -0.039234
v -0.796791 0.472652 -0.226466
v -0.526985 0.509460 -0.679515
v -0.177075 0.548674 -0.847373
v 0.039385 0.505256 -0.869089
v 0.447967 0.472670 -0.686024
v 0.605586 0.539138 -0.458392
v 0.833676 0.467081 -0.269016
v 0.142639 0.979378 0.313768
v 0.173493 0.863859 0.522978
v 0.269402 0.666614 0.685455
v 0.741422 0.663817 0.008149
v 0.547438 0.838485 -0.084720
v 0.254507 0.974780 -0.016551
v -0.225178 0.953304 0.146602
v -0.423025 0.847765 0.282485
v -0.609589 0.666460 0.471156
v -0.199072 0.957546 -0.079268
v -0.449692 0.840614 -0.279137
v -0.627549 0.700138 -0.416226
v 0.086204 0.876712 -0.255077
v 0.138133 0.884887 -0.451252
v 0.285392 0.696888 -0.676278
v 0.344635 0.900380 -0.250849
v 0.692269 0.706832 -0.288693
v 0.423082 0.716597 -0.528219
v -0.134958 0.873265 -0.470913
v -0.071812 0.776306 -0.652824
v -0.364668 0.726528 -0.586386
v -0.453038 0.877018 -0.000911
v -0.703181 0.686205 -0.135532
v -0.613784 0.698747 0.178336
v -0.071251 0.915263 0.394482
v -0.372923 0.730331 0.586396
v -0.081738 0.668619 0.723478
v 0.369485 0.910865 0.298326
v 0.459104 0.690973 0.587083
v 0.648668 0.717625 0.256998
v 0.849402 0.263434 -0.413791
v 0.753998 0.005983 -0.562924
v 0.675624 0.265667 -0.683837
v -0.144375 0.278414 -0.964938
v -0.321109 -0.019714 -0.926849
v -0.446570 0.272760 -0.849183
v -0.952167 0.279082 -0.165623
v -0.957731 0.078074 -0.000802
v -0.930374 0.307154 0.163366
v -0.436549 0.310599 0.848866
v -0.331796 0.023616 0.941741
v -0.082758 0.286331 0.908901
v 0.664616 0.266999 0.702343
v 0.889010 0.002679 0.645215
v 0.822833 0.274000 0.399735
v 0.338473 -0.058400 -0.989461
v 0.386970 -0.309929 -0.839075
v 0.134235 -0.281054 -0.953616
v -0.801030 0.002326 -0.588600
v -0.658260 -0.272555 -0.708260
v -0.853320 -0.298799 -0.436567
v -0.815016 -0.006225 0.586551
v -0.929152 -0.279662 0.451147
v -0.678308 -0.318003 0.662180
v 0.332986 -0.009944 0.936952
v 0.144411 -0.282298 0.946067
v 0.453174 -0.264781 0.862026
v 0.909214 0.006610 -0.016644
v 0.955000 -0.275214 0.232108
v 0.900441 -0.283540 -0.076299
v 0.362969 -0.660601 -0.524818
v 0.150406 -0.953588 -0.386808
v 0.028362 -0.726821 -0.716398
v -0.376021 -0.708535 -0.552774
v -0.368508 -0.892956 -0.252826
v -0.634680 -0.723324 -0.257601
v -0.636803 -0.739284 0.263872
v -0.345237 -0.908016 0.266426
v -0.510429 -0.689215 0.564705
v 0.676968 -0.686322 -0.219117
v 0.680278 -0.729170 0.181350
v 0.458594 -0.890774 -0.011061
v 0.049947 -0.767077 0.688517
v 0.180050 -0.877086 0.416660
v 0.354252 -0.723301 0.547981
vn -0.1331 -0.9898 -0.0507
vn 0.6867 -0.6040 0.4045
vn -0.0575 -0.9983 -0.0134
vn -0.0716 -0.9888 -0.1310
vn 0.1000 -0.9784 -0.1811
vn 0.8158 -0.4300 0.3868
vn 0.2009 -0.4865 0.8503
vn -0.8769 -0.3798 0.2945
vn -0.7714 -0.1269 -0.6235
vn 0.7961 -0.5211 -0.3075
vn 0.5898 -0.0098 0.8075
vn -0.3850 -0.2344 0.8927
vn -0.9942 0.0379 -0.1006
vn -0.4714 -0.0192 -0.8817
vn 0.6508 -0.6347 -0.4166
vn 0.1504 0.4657 0.8721
vn -0.7240 0.5081 0.4666
vn -0.8625 0.4524 -0.2268
vn 0.1734 0.5790 -0.7967
vn 0.8083 0.5725 -0.1373
vn 0.0235 0.9187 -0.3943
vn 0.3911 0.9099 -0.1385
vn 0.6700 0.7423 -0.0034
vn -0.0807 0.9406 -0.3297
vn -0.0915 0.9957 0.0173
vn 0.4535 0.8602 -0.2332
vn 0.4054 0.8107 -0.4225
vn 0.3655 0.8202 -0.4401
vn 0.3627 0.8182 -0.4462
vn 0.8617 0.5025 -0.0699
vn 0.6622 0.3356 -0.6699
vn 0.6245 0.3721 -0.6867
vn 0.6663 0.4518 -0.5933
vn 0.6133 0.4722 -0.6332
vn 0.5958 0.4606 -0.6579
vn 0.0158 0.9179 -0.3964
vn -0.0446 0.9986 0.0298
vn 0.1405 0.8031 -0.5790
vn 0.1626 0.9698 -0.1821
vn -0.2449 0.9388 -0.2421
vn -0.0036 0.8819 -0.4713
vn -0.2567 0.8131 -0.5225
vn -0.3368 0.8485 -0.4082
vn -0.3497 0.8425 -0.4096
vn 0.0933 0.6441 -0.7592
vn 0.0501 0.6354 -0.7706
vn -0.2694 0.6946 -0.6670
vn -0.4003 0.5974 -0.6949
vn -0.4691 0.6204 -0.6285
vn -0.5991 0.5222 -0.6070
vn -0.1531 0.9882 0.0009
vn -0.3350 0.9337 -0.1262
vn -0.5620 0.8197 -0.1108
vn -0.3071 0.9515 -0.0176
vn -0.3923 0.9098 0.1355
vn -0.5631 0.8185 -0.1139
vn -0.6507 0.7432 0.1556
vn -0.6573 0.7394 0.1459
vn -0.6440 0.7594 0.0930
vn -0.8600 0.4658 -0.2086
vn -0.7770 0.5022 -0.3796
vn -0.6516 0.7423 0.1559
vn -0.5909 0.8054 0.0473
vn -0.5680 0.8172 0.0982
vn -0.6463 0.4903 0.5847
vn -0.1057 0.9913 0.0780
vn -0.2733 0.9108 0.3095
vn -0.4111 0.8255 0.3867
vn -0.1856 0.9474 0.2607
vn -0.0752 0.8682 0.4905
vn -0.2909 0.8753 0.3862
vn -0.1107 0.7969 0.5939
vn -0.1434 0.7940 0.5907
vn 0.0848 0.6578 0.7484
vn -0.4470 0.7341 0.5112
vn -0.3177 0.6476 0.6926
vn -0.1816 0.6930 0.6977
vn 0.0692 0.4121 0.9085
vn 0.0997 0.4273 0.8986
vn 0.0554 0.4786 0.8763
vn 0.0591 0.9982 0.0061
vn 0.2877 0.8557 0.4301
vn 0.2634 0.6864 0.6778
vn 0.2934 0.9521 0.0861
vn 0.4270 0.9039 0.0276
vn 0.3693 0.7910 0.4877
vn 0.5634 0.7322 0.3827
vn 0.5768 0.8087 0.1152
vn 0.6466 0.7590 0.0769
vn 0.2973 0.6193 0.7267
vn 0.5063 0.5547 0.6603
vn 0.5626 0.7330 0.3823
vn 0.6910 0.6539 0.3081
vn 0.7043 0.7011 0.1109
vn 0.7949 0.6067 -0.0111
vn 0.9279 0.3224 -0.1873
vn 0.9607 0.1167 -0.2520
vn 0.8215 0.2117 -0.5295
vn 0.9296 0.2585 -0.2626
vn 0.6461 0.4747 -0.5976
vn 0.8367 0.0071 -0.5476
vn 0.8409 0.0018 -0.5411
vn 0.7043 0.5502 -0.4486
vn 0.5584 0.6081 -0.5642
vn 0.8087 0.1870 -0.5577
vn 0.9058 0.0719 -0.4175
vn 0.9052 0.0787 -0.4177
vn 0.5871 0.3398 -0.7347
vn 0.5070 0.5506 -0.6632
vn 0.5620 0.5269 -0.6376
vn 0.0496 0.1201 -0.9915
vn 0.3042 0.3843 -0.8717
vn -0.2922 0.0798 -0.9530
vn 0.2580 0.1911 -0.9470
vn -0.0123 0.3976 -0.9175
vn -0.2936 0.0521 -0.9545
vn -0.3577 0.0933 -0.9292
vn -0.3420 0.3398 -0.8761
vn -0.4298 0.4250 -0.7966
vn -0.4667 -0.1039 -0.8783
vn -0.4301 -0.1175 -0.8951
vn -0.3535 0.0954 -0.9305
vn -0.6766 0.2392 -0.6964
vn -0.6752 0.2643 -0.6887
vn -0.6688 0.2594 -0.6967
vn -0.7946 0.5752 -0.1940
vn -0.9718 -0.1967 -0.1303
vn -0.9658 0.0180 -0.2586
vn -0.7939 0.5760 -0.1950
vn -0.7760 0.5035 -0.3799
vn -0.9628 -0.1548 -0.2213
vn -0.9953 0.0763 0.0594
vn -0.9281 0.3712 0.0298
vn -0.9375 0.3480 -0.0013
vn -0.9952 -0.0522 -0.0824
vn -0.9999 -0.0103 0.0034
vn -0.9937 0.1115 0.0100
vn -0.7857 0.4414 0.4334
vn -0.9306 0.0539 0.3619
vn -0.8277 0.0715 0.5566
vn -0.7167 0.3743 0.5884
vn -0.4981 0.1328 0.8569
vn -0.4550 -0.0580 0.8886
vn -0.5375 0.3386 0.7723
vn -0.4342 0.4106 0.8018
vn -0.4657 0.1140 0.8776
vn -0.1446 0.2565 0.9557
vn -0.1429 0.2717 0.9517
vn 0.0712 0.4513 0.8895
vn -0.3985 -0.0979 0.9119
vn -0.1595 0.1175 0.9802
vn -0.1564 0.2671 0.9509
vn -0.1674 0.2609 0.9507
vn -0.1319 0.5257 0.8404
vn 0.1662 0.6362 0.7534
vn 0.1552 0.4602 0.8742
vn 0.6637 0.2513 0.7045
vn 0.5738 -0.5968 0.5609
vn 0.6061 0.4243 0.6728
vn 0.5646 0.3856 0.7297
vn 0.5512 0.2996 0.7787
vn 0.7397 0.5417 0.3993
vn 0.8700 0.1801 0.4590
vn 0.8742 0.1879 0.4478
vn 0.4863 -0.4842 0.7273
vn 0.9467 -0.0936 0.3081
vn 0.8382 0.4639 0.2867
vn 0.8101 0.3461 0.4732
vn 0.8167 0.2527 0.5188
vn 0.9249 0.3291 0.1902
vn 0.0452 0.1221 -0.9915
vn 0.3899 0.1893 -0.9012
vn 0.4282 -0.3931 -0.8137
vn -0.0050 0.3372 -0.9414
vn 0.1808 0.4530 -0.8730
vn 0.4356 -0.3985 -0.8071
vn 0.3294 -0.4369 -0.8370
vn 0.1313 -0.2739 -0.9528
vn 0.1966 -0.2474 -0.9488
vn 0.4257 -0.3613 -0.8296
vn 0.6398 -0.1383 -0.7560
vn 0.4110 -0.0186 -0.9115
vn 0.0226 -0.3890 -0.9210
vn 0.1545 -0.4665 -0.8709
vn 0.0424 -0.4995 -0.8653
vn -0.5385 0.3072 -0.7846
vn -0.6894 0.2179 -0.6908
vn -0.4864 -0.1447 -0.8617
vn -0.5731 0.1346 -0.8083
vn -0.9292 -0.2858 -0.2342
vn -0.6729 -0.0277 -0.7392
vn -0.7949 -0.1578 -0.5859
vn -0.9645 0.0355 -0.2615
vn -0.9701 0.0250 -0.2415
vn -0.4478 -0.3840 -0.8074
vn -0.5263 -0.4286 -0.7344
vn -0.7792 -0.2330 -0.5819
vn -0.8980 -0.3611 -0.2515
vn -0.9013 -0.3564 -0.2461
vn -0.8425 -0.2335 -0.4855
vn -0.8828 0.2186 0.4158
vn -0.7035 0.4096 0.5808
vn -0.9950 -0.0611 0.0785
vn -0.8806 0.2272 0.4158
vn -0.7006 -0.0460 0.7120
vn -0.8261 0.0678 0.5594
vn -0.6495 -0.1020 0.7535
vn -0.6942 -0.1328 0.7075
vn -0.6435 -0.1651 0.7475
vn -0.8955 -0.4438 0.0333
vn -0.7990 -0.5546 0.2323
vn -0.6454 -0.2502 0.7217
vn -0.5263 -0.3129 0.7906
vn -0.5622 -0.3663 0.7415
vn -0.4944 -0.3856 0.7791
vn 0.2441 0.5935 0.7669
vn 0.2587 0.1024 0.9605
vn 0.1956 -0.1350 0.9713
vn 0.2458 0.0940 0.9648
vn 0.2832 0.0678 0.9567
vn 0.2279 -0.1255 0.9656
vn 0.2676 -0.1535 0.9512
vn 0.2474 -0.1641 0.9549
vn 0.6638 -0.5238 0.5339
vn 0.0893 -0.5324 0.8417
vn -0.1427 -0.4047 0.9033
vn 0.2670 -0.2761 0.9233
vn 0.5384 -0.5162 0.6660
vn 0.6831 -0.4262 0.5930
vn 0.2320 -0.1396 0.9626
vn 0.9674 0.2212 -0.1232
vn 0.9363 -0.0120 -0.3509
vn 0.9580 -0.2177 0.1866
vn 0.9577 -0.1315 -0.2559
vn 0.9987 -0.0459 -0.0214
vn 0.9263 -0.1533 -0.3442
vn 0.9847 0.0061 -0.1744
vn 0.9994 -0.0257 -0.0220
vn 0.9991 -0.0317 -0.0285
vn 0.9076 -0.3595 0.2167
vn 0.9044 -0.4255 -0.0335
vn 0.9387 -0.3065 -0.1578
vn 0.9261 -0.3173 -0.2041
vn 0.9121 -0.3976 -0.0997
vn 0.5779 -0.4536 -0.6784
vn 0.8312 -0.3023 -0.4666
vn 0.2388 -0.7282 -0.6425
vn 0.4296 -0.8887 -0.1603
vn 0.2169 -0.7928 -0.5696
vn 0.3196 -0.8162 -0.4814
vn 0.4645 -0.6301 -0.6223
vn 0.4753 -0.6328 -0.6113
vn 0.4232 -0.7735 -0.4719
vn 0.0346 -0.5432 -0.8389
vn -0.0083 -1.0000 0.0050
vn -0.1507 -0.9540 -0.2590
vn -0.0275 -0.8283 -0.5597
vn -0.2017 -0.7348 -0.6476
vn -0.0778 -0.5621 -0.8234
vn 0.0242 -0.6418 -0.7665
vn -0.3846 -0.7958 -0.4678
vn -0.3692 -0.7013 -0.6098
vn -0.1965 -0.9516 -0.2365
vn -0.3893 -0.6809 -0.6203
vn -0.4091 -0.6827 -0.6054
vn -0.4661 -0.7588 -0.4549
vn -0.4734 -0.7556 -0.4527
vn -0.4300 -0.8008 -0.4170
vn -0.7421 -0.6500 -0.1634
vn -0.1960 -0.9617 -0.1918
vn -0.4310 -0.9015 -0.0392
vn -0.5319 -0.8381 -0.1213
vn -0.6186 -0.7828 -0.0672
vn -0.7398 -0.6433 -0.1974
vn -0.6821 -0.6969 -0.2213
vn -0.7998 -0.5726 0.1803
vn -0.6157 -0.7878 0.0176
vn -0.4336 -0.9007 0.0273
vn -0.7433 -0.6411 0.1910
vn -0.7414 -0.6314 0.2274
vn -0.4995 -0.8619 0.0876
vn -0.4742 -0.8143 0.3347
vn -0.5667 -0.7405 0.3613
vn -0.4463 -0.5290 0.7218
vn -0.2708 -0.9539 0.1293
vn -0.1960 -0.9073 0.3719
vn -0.3089 -0.8404 0.4454
vn -0.2477 -0.7570 0.6047
vn -0.3470 -0.5648 0.7487
vn -0.3878 -0.6275 0.6752
vn 0.7345 -0.3099 -0.6037
vn 0.8036 -0.5864 -0.1017
vn 0.7975 -0.6007 -0.0567
vn 0.6741 -0.6748 -0.3005
vn 0.5549 -0.7825 -0.2825
vn 0.7906 -0.6082 -0.0716
vn 0.6352 -0.7674 -0.0874
vn 0.5486 -0.8073 -0.2175
vn 0.3666 -0.9061 -0.2114
vn 0.6509 -0.7002 0.2934
vn 0.6610 -0.6913 0.2920
vn 0.5632 -0.8251 0.0441
vn 0.5083 -0.8603 0.0399
vn 0.3588 -0.9162 -0.1783
vn 0.0794 -0.9644 -0.2523
vn 0.1407 -0.6811 0.7185
vn -0.2294 -0.7569 0.6120
vn 0.0439 -0.9074 0.4180
vn -0.0940 -0.4666 0.8795
vn -0.1470 -0.4712 0.8697
vn 0.0346 -0.9206 0.3891
vn 0.3411 -0.8033 0.4883
vn 0.3864 -0.6777 0.6256
vn 0.5159 -0.5894 0.6217
vn -0.0936 -0.8281 0.5527
vn 0.0693 -0.8197 0.5686
vn 0.1007 -0.7096 0.6974
vn 0.3756 -0.5975 0.7085
vn 0.3749 -0.5648 0.7351
vn 0.2777 -0.6377 0.7185
usemtl None
s off
f 1//1 16//1 15//1
f 2//2 18//2 24//2
f 1//3 15//3 30//3
f 1//4 30//4 36//4
f 1//5 36//5 25//5
f 2//6 24//6 45//6
f 3//7 21//7 51//7
f 4//8 33//8 57//8
f 5//9 39//9 63//9
f 6//10 42//10 69//10
f 2//11 45//11 52//11
f 3//12 51//12 58//12
f 4//13 57//13 64//13
f 5//14 63//14 70//14
f 6//15 69//15 46//15
f 7//16 75//16 90//16
f 8//17 78//17 96//17
f 9//18 81//18 99//18
f 10//19 84//19 102//19
f 11//20 87//20 91//20
f 93//21 100//21 12//21
f 92//22 103//22 93//22
f 91//23 104//23 92//23
f 93//24 103//24 100//24
f 103//25 101//25 100//25
f 92//26 104//26 103//26
f 104//27 105//27 103//27
f 103//28 105//28 101//28
f 105//29 102//29 101//29
f 91//30 87//30 104//30
f 87//31 86//31 104//31
f 104//32 86//32 105//32
f 86//33 85//33 105//33
f 105//34 85//34 102//34
f 85//35 10//35 102//35
f 100//36 97//36 12//36
f 101//37 106//37 100//37
f 102//38 107//38 101//38
f 100//39 106//39 97//39
f 106//40 98//40 97//40
f 101//41 107//41 106//41
f 107//42 108//42 106//42
f 106//43 108//43 98//43
f 108//44 99//44 98//44
f 102//45 84//45 107//45
f 84//46 83//46 107//46
f 107//47 83//47 108//47
f 83//48 82//48 108//48
f 108//49 82//49 99//49
f 82//50 9//50 99//50
f 97//51 94//51 12//51
f 98//52 109//52 97//52
f 99//53 110//53 98//53
f 97//54 109//54 94//54
f 109//55 95//55 94//55
f 98//56 110//56 109//56
f 110//57 111//57 109//57
f 109//58 111//58 95//58
f 111//59 96//59 95//59
f 99//60 81//60 110//60
f 81//61 80//61 110//61
f 110//62 80//62 111//62
f 80//63 79//63 111//63
f 111//64 79//64 96//64
f 79//65 8//65 96//65
f 94//66 88//66 12//66
f 95//67 112//67 94//67
f 96//68 113//68 95//68
f 94//69 112//69 88//69
f 112//70 89//70 88//70
f 95//71 113//71 112//71
f 113//72 114//72 112//72
f 112//73 114//73 89//73
f 114//74 90//74 89//74
f 96//75 78//75 113//75
f 78//76 77//76 113//76
f 113//77 77//77 114//77
f 77//78 76//78 114//78
f 114//79 76//79 90//79
f 76//80 7//80 90//80
f 88//81 93//81 12//81
f 89//82 115//82 88//82
f 90//83 116//83 89//83
f 88//84 115//84 93//84
f 115//85 92//85 93//85
f 89//86 116//86 115//86
f 116//87 117//87 115//87
f 115//88 117//88 92//88
f 117//89 91//89 92//89
f 90//90 75//90 116//90
f 75//91 74//91 116//91
f 116//92 74//92 117//92
f 74//93 73//93 117//93
f 117//94 73//94 91//94
f 73//95 11//95 91//95
f 48//96 87//96 11//96
f 47//97 118//97 48//97
f 46//98 119//98 47//98
f 48//99 118//99 87//99
f 118//100 86//100 87//100
f 47//101 119//101 118//101
f 119//102 120//102 118//102
f 118//103 120//103 86//103
f 120//104 85//104 86//104
f 46//105 69//105 119//105
f 69//106 68//106 119//106
f 119//107 68//107 120//107
f 68//108 67//108 120//108
f 120//109 67//109 85//109
f 67//110 10//110 85//110
f 72//111 84//111 10//111
f 71//112 121//112 72//112
f 70//113 122//113 71//113
f 72//114 121//114 84//114
f 121//115 83//115 84//115
f 71//116 122//116 121//116
f 122//117 123//117 121//117
f 121//118 123//118 83//118
f 123//119 82//119 83//119
f 70//120 63//120 122//120
f 63//121 62//121 122//121
f 122//122 62//122 123//122
f 62//123 61//123 123//123
f 123//124 61//124 82//124
f 61//125 9//125 82//125
f 66//126 81//126 9//126
f 65//127 124//127 66//127
f 64//128 125//128 65//128
f 66//129 124//129 81//129
f 124//130 80//130 81//130
f 65//131 125//131 124//131
f 125//132 126//132 124//132
f 124//133 126//133 80//133
f 126//134 79//134 80//134
f 64//135 57//135 125//135
f 57//136 56//136 125//136
f 125//137 56//137 126//137
f 56//138 55//138 126//138
f 126//139 55//139 79//139
f 55//140 8//140 79//140
f 60//141 78//141 8//141
f 59//142 127//142 60//142
f 58//143 128//143 59//143
f 60//144 127//144 78//144
f 127//145 77//145 78//145
f 59//146 128//146 127//146
f 128//147 129//147 127//147
f 127//148 129//148 77//148
f 129//149 76//149 77//149
f 58//150 51//150 128//150
f 51//151 50//151 128//151
f 128//152 50//152 129//152
f 50//153 49//153 129//153
f 129//154 49//154 76//154
f 49//155 7//155 76//155
f 54//156 75//156 7//156
f 53//157 130//157 54//157
f 52//158 131//158 53//158
f 54//159 130//159 75//159
f 130//160 74//160 75//160
f 53//161 131//161 130//161
f 131//162 132//162 130//162
f 130//163 132//163 74//163
f 132//164 73//164 74//164
f 52//165 45//165 131//165
f 45//166 44//166 131//166
f 131//167 44//167 132//167
f 44//168 43//168 132//168
f 132//169 43//169 73//169
f 43//170 11//170 73//170
f 67//171 72//171 10//171
f 68//172 133//172 67//172
f 69//173 134//173 68//173
f 67//174 133//174 72//174
f 133//175 71//175 72//175
f 68//176 134//176 133//176
f 134//177 135//177 133//177
f 133//178 135//178 71//178
f 135//179 70//179 71//179
f 69//180 42//180 134//180
f 42//181 41//181 134//181
f 134//182 41//182 135//182
f 41//183 40//183 135//183
f 135//184 40//184 70//184
f 40//185 5//185 70//185
f 61//186 66//186 9//186
f 62//187 136//187 61//187
f 63//188 137//188 62//188
f 61//189 136//189 66//189
f 136//190 65//190 66//190
f 62//191 137//191 136//191
f 137//192 138//192 136//192
f 136//193 138//193 65//193
f 138//194 64//194 65//194
f 63//195 39//195 137//195
f 39//196 38//196 137//196
f 137//197 38//197 138//197
f 38//198 37//198 138//198
f 138//199 37//199 64//199
f 37//200 4//200 64//200
f 55//201 60//201 8//201
f 56//202 139//202 55//202
f 57//203 140//203 56//203
f 55//204 139//204 60//204
f 139//205 59//205 60//205
f 56//206 140//206 139//206
f 140//207 141//207 139//207
f 139//208 141//208 59//208
f 141//209 58//209 59//209
f 57//210 33//210 140//210
f 33//211 32//211 140//211
f 140//212 32//212 141//212
f 32//213 31//213 141//213
f 141//214 31//214 58//214
f 31//215 3//215 58//215
f 49//216 54//216 7//216
f 50//217 142//217 49//217
f 51//218 143//218 50//218
f 49//219 142//219 54//219
f 142//220 53//220 54//220
f 50//221 143//221 142//221
f 143//222 144//222 142//222
f 142//223 144//223 53//223
f 144//224 52//224 53//224
f 51//225 21//225 143//225
f 21//226 20//226 143//226
f 143//227 20//227 144//227
f 20//228 19//228 144//228
f 144//229 19//229 52//229
f 19//230 2//230 52//230
f 43//231 48//231 11//231
f 44//232 145//232 43//232
f 45//233 146//233 44//233
f 43//234 145//234 48//234
f 145//235 47//235 48//235
f 44//236 146//236 145//236
f 146//237 147//237 145//237
f 145//238 147//238 47//238
f 147//239 46//239 47//239
f 45//240 24//240 146//240
f 24//241 23//241 146//241
f 146//242 23//242 147//242
f 23//243 22//243 147//243
f 147//244 22//244 46//244
f 22//245 6//245 46//245
f 27//246 42//246 6//246
f 26//247 148//247 27//247
f 25//248 149//248 26//248
f 27//249 148//249 42//249
f 148//250 41//250 42//250
f 26//251 149//251 148//251
f 149//252 150//252 148//252
f 148//253 150//253 41//253
f 150//254 40//254 41//254
f 25//255 36//255 149//255
f 36//256 35//256 149//256
f 149//257 35//257 150//257
f 35//258 34//258 150//258
f 150//259 34//259 40//259
f 34//260 5//260 40//260
f 34//261 39//261 5//261
f 35//262 151//262 34//262
f 36//263 152//263 35//263
f 34//264 151//264 39//264
f 151//265 38//265 39//265
f 35//266 152//266 151//266
f 152//267 153//267 151//267
f 151//268 153//268 38//268
f 153//269 37//269 38//269
f 36//270 30//270 152//270
f 30//271 29//271 152//271
f 152//272 29//272 153//272
f 29//273 28//273 153//273
f 153//274 28//274 37//274
f 28//275 4//275 37//275
f 28//276 33//276 4//276
f 29//277 154//277 28//277
f 30//278 155//278 29//278
f 28//279 154//279 33//279
f 154//280 32//280 33//280
f 29//281 155//281 154//281
f 155//282 156//282 154//282
f 154//283 156//283 32//283
f 156//284 31//284 32//284
f 30//285 15//285 155//285
f 15//286 14//286 155//286
f 155//287 14//287 156//287
f 14//288 13//288 156//288
f 156//289 13//289 31//289
f 13//290 3//290 31//290
f 22//291 27//291 6//291
f 23//292 157//292 22//292
f 24//293 158//293 23//293
f 22//294 157//294 27//294
f 157//295 26//295 27//295
f 23//296 158//296 157//296
f 158//297 159//297 157//297
f 157//298 159//298 26//298
f 159//299 25//299 26//299
f 24//300 18//300 158//300
f 18//301 17//301 158//301
f 158//302 17//302 159//302
f 17//303 16//303 159//303
f 159//304 16//304 25//304
f 16//305 1//305 25//305
f 13//306 21//306 3//306
f 14//307 160//307 13//307
f 15//308 161//308 14//308
f 13//309 160//309 21//309
f 160//310 20//310 21//310
f 14//311 161//311 160//311
f 161//312 162//312 160//312
f 160//313 162//313 20//313
f 162//314 19//314 20//314
f 15//315 16//315 161//315
f 16//316 17//316 161//316
f 161//317 17//317 162//317
f 17//318 18//318 162//318
f 162//319 18//319 19//319
f 18//320 2//320 19//320
